<?xml version="1.0" encoding="UTF-8"?>
<svg width="28.428mm" height="7.4759mm" version="1.1" viewBox="0 0 31.977 8.4095" xmlns="http://www.w3.org/2000/svg">
 <g stroke-width=".29763">
  <path d="m5.8157 8.301h-5.8161v-1.0634h5.8161z">
              <animate attributeName="fill"
                values="#ffffffff; #2aa0a2ff" keyTimes="0; 0.05"
                dur="2s" calcMode="discrete" fill="freeze"/>
                </path>
  <path d="m11.968 7.4655q-0.39606 0.45032-0.96031 0.69989-0.56425 0.24415-1.2316 0.24415-0.82467 0-1.4812-0.36893-0.65106-0.36893-1.0308-1.0037-0.37436-0.64021-0.37436-1.4486 0-0.8084 0.37436-1.4432 0.37978-0.64021 1.0308-1.0091 0.65648-0.36893 1.4812-0.36893 0.66191 0 1.2207 0.24415 0.56425 0.24415 0.96031 0.68904l-0.78127 0.8301q-0.24415-0.26585-0.59138-0.41234-0.34181-0.14649-0.72702-0.14649-0.46659 0-0.8301 0.20617-0.35808 0.20617-0.56425 0.56968-0.20074 0.36351-0.20074 0.83553 0 0.47202 0.20074 0.84095 0.20617 0.36351 0.56425 0.5751 0.36351 0.20617 0.8301 0.20617 0.38521 0 0.73244-0.14649 0.34723-0.15191 0.58595-0.41234z">
              <animate attributeName="fill"
                values="#ffffffff; #2aa0a2ff" keyTimes="0; 0.1"
                dur="2s" calcMode="discrete" fill="freeze"/>
                </path>
  <path d="m15.544 8.4095q-0.8301 0-1.4866-0.36893-0.65106-0.36893-1.0308-1.0037-0.37436-0.64021-0.37436-1.4486 0-0.8084 0.37436-1.4432 0.37978-0.64021 1.0308-1.0091 0.65648-0.36893 1.4866-0.36893 0.82468 0 1.4757 0.36893 0.65106 0.36893 1.02 1.0091 0.37436 0.63478 0.37436 1.4432 0 0.8084-0.37436 1.4486-0.36893 0.63478-1.02 1.0037-0.65106 0.36893-1.4757 0.36893zm-0.01085-1.199q0.43404 0 0.77584-0.21159 0.34181-0.21159 0.53712-0.58053 0.20074-0.36893 0.20074-0.83553 0-0.46117-0.20074-0.82467-0.19532-0.36893-0.53712-0.58053-0.34181-0.21159-0.77584-0.21159-0.42861 0-0.77584 0.21159-0.34181 0.21159-0.54255 0.58053-0.19532 0.36351-0.19532 0.82467 0 0.46659 0.19532 0.83553 0.20074 0.36893 0.54255 0.58053 0.34723 0.21159 0.77584 0.21159z">
              <animate attributeName="fill"
                values="#ffffffff; #2aa0a2ff" keyTimes="0; 0.15"
                dur="2s" calcMode="discrete" fill="freeze"/>
                </path>
  <path d="m21.251 8.301h-1.3347v-4.2319h-0.94946v-1.1936h0.94946v-0.94946q0-0.56425 0.255-0.99829 0.26042-0.43404 0.70531-0.67819 0.45032-0.24957 1.0363-0.24957 0.36351 0 0.73787 0.10308 0.37436 0.10308 0.73244 0.3201l-0.50457 1.0417q-0.17904-0.13564-0.37436-0.20074-0.18989-0.070531-0.37978-0.070531-0.37436 0-0.62393 0.26585-0.24957 0.26585-0.24957 0.72702v0.68904h1.6385v1.1936h-1.6385z">
              <animate attributeName="fill"
                values="#ffffffff; #2aa0a2ff" keyTimes="0; 0.45"
                dur="2s" calcMode="discrete" fill="freeze"/>
                </path>
  <path d="m25.288 8.301h-1.7958l2.3221-2.7833-2.181-2.6422h1.8175l1.275 1.7036 1.2533-1.7036h1.8013l-2.1593 2.6205 2.3167 2.805h-1.8175l-1.4052-1.8826z">
              <animate attributeName="fill"
                values="#ffffffff; #2aa0a2ff" keyTimes="0; 0.75"
                dur="2s" calcMode="discrete" fill="freeze"/>
                </path>
  <path d="m31.646 6.082h-0.68904l-0.20617-5.9192h1.1014zm-0.34723 2.3275q-0.28755 0-0.48287-0.18989-0.19532-0.19532-0.19532-0.47744 0-0.27127 0.19532-0.46117 0.19532-0.19532 0.48287-0.19532t0.48287 0.19532q0.19532 0.18989 0.19532 0.46117 0 0.28213-0.19532 0.47744-0.19532 0.18989-0.48287 0.18989z">
              <animate attributeName="fill"
                values="#ffffffff; #2aa0a2ff; #ffffffff; #2aa0a2ff; #ffffffff; #2aa0a2ff; #ffffffff"
                keyTimes="0; 0.5; 0.7; 0.8; 0.9; 0.95; 1"
                dur="4s" calcMode="discrete" fill="freeze"/>
                </path>
 </g>
</svg>
